<svg width="17" height="18" viewBox="0 0 17 18" fill="none" xmlns="http://www.w3.org/2000/svg">
<path d="M14.1174 3.84924C13.996 3.7864 13.8777 3.71752 13.7631 3.64286C13.43 3.42266 13.1247 3.16322 12.8536 2.87013C12.1744 2.0934 11.9208 1.30548 11.8281 0.754329H11.8313C11.7537 0.295972 11.7857 0 11.7913 0H8.69955V11.9533C8.69955 12.1133 8.69955 12.2724 8.69315 12.4292C8.69315 12.4484 8.69075 12.466 8.68995 12.4876C8.68995 12.4956 8.68995 12.5052 8.68755 12.514V12.5212C8.65509 12.95 8.51773 13.3642 8.28758 13.7275C8.05742 14.0907 7.74152 14.3918 7.36768 14.6042C6.97765 14.8261 6.53652 14.9425 6.0878 14.9418C4.64793 14.9418 3.48004 13.7675 3.48004 12.3172C3.48004 10.8662 4.64793 9.69189 6.0878 9.69189C6.36057 9.69189 6.63174 9.73509 6.89092 9.81988L6.89492 6.67137C6.1078 6.56982 5.30818 6.63255 4.54653 6.85559C3.78488 7.07864 3.07774 7.45716 2.46974 7.96725C1.93687 8.43004 1.48886 8.98228 1.14586 9.5991C1.01547 9.82388 0.522718 10.7286 0.463524 12.1957C0.425927 13.0276 0.676304 13.8915 0.795493 14.2475V14.2555C0.869886 14.465 1.16106 15.1818 1.63461 15.7857C2.01649 16.2705 2.46769 16.6963 2.97369 17.0496V17.0416L2.98089 17.0496C4.47675 18.0655 6.13659 17.9991 6.13659 17.9991C6.42376 17.9871 7.38607 17.9991 8.47877 17.4816C9.69066 16.9072 10.3802 16.0521 10.3802 16.0521C10.821 15.541 11.1716 14.9586 11.4169 14.3299C11.6969 13.5939 11.7897 12.7124 11.7897 12.3604V6.01784C11.8273 6.04023 12.3272 6.3706 12.3272 6.3706C12.3272 6.3706 13.0471 6.83216 14.1694 7.13213C14.9742 7.34571 16.0597 7.39131 16.0597 7.39131V4.32199C15.6797 4.36359 14.9078 4.2436 14.1166 3.85004" fill="white"/>
</svg>
