<svg width="19" height="18" viewBox="0 0 19 18" fill="none" xmlns="http://www.w3.org/2000/svg">
<path fill-rule="evenodd" clip-rule="evenodd" d="M9.05957 3C9.70082 3 10.3586 3.0165 10.9961 3.0435L11.7491 3.0795L12.4698 3.12225L13.1448 3.168L13.7613 3.216C14.4304 3.26721 15.0599 3.55271 15.5392 4.02228C16.0185 4.49185 16.3169 5.1154 16.3818 5.78325L16.4118 6.102L16.4681 6.7845C16.5206 7.49175 16.5596 8.26275 16.5596 9C16.5596 9.73725 16.5206 10.5083 16.4681 11.2155L16.4118 11.898C16.4021 12.0075 16.3923 12.1132 16.3818 12.2167C16.3169 12.8847 16.0184 13.5084 15.5389 13.9779C15.0595 14.4475 14.4297 14.733 13.7606 14.784L13.1456 14.8312L12.4706 14.8777L11.7491 14.9205L10.9961 14.9565C10.3509 14.9845 9.7053 14.999 9.05957 15C8.41384 14.999 7.7682 14.9845 7.12307 14.9565L6.37007 14.9205L5.64932 14.8777L4.97432 14.8312L4.35782 14.784C3.68878 14.7328 3.05923 14.4473 2.57992 13.9777C2.10062 13.5082 1.80225 12.8846 1.73732 12.2167L1.70732 11.898L1.65107 11.2155C1.59372 10.4784 1.5632 9.73936 1.55957 9C1.55957 8.26275 1.59857 7.49175 1.65107 6.7845L1.70732 6.102C1.71707 5.9925 1.72682 5.88675 1.73732 5.78325C1.80223 5.11552 2.10048 4.49206 2.57964 4.02251C3.0588 3.55295 3.68817 3.26738 4.35707 3.216L4.97282 3.168L5.64782 3.12225L6.36932 3.0795L7.12232 3.0435C7.7677 3.01547 8.41359 3.00097 9.05957 3ZM7.55957 7.18125V10.8188C7.55957 11.1653 7.93457 11.3812 8.23457 11.2087L11.3846 9.39C11.4531 9.35054 11.51 9.29372 11.5496 9.22525C11.5892 9.15678 11.6101 9.07909 11.6101 9C11.6101 8.92091 11.5892 8.84322 11.5496 8.77475C11.51 8.70628 11.4531 8.64946 11.3846 8.61L8.23457 6.792C8.16614 6.75249 8.08851 6.7317 8.0095 6.73171C7.93048 6.73172 7.85286 6.75254 7.78445 6.79207C7.71603 6.8316 7.65923 6.88845 7.61975 6.9569C7.58028 7.02535 7.55952 7.10298 7.55957 7.182V7.18125Z" fill="white"/>
</svg>
